# Vectary OBJ Export units=mm
mtllib Project Name.mtl
o 000_Group_3_-_Plane_-_baked
g Group_3_-_Plane_-_baked
usemtl Material_7b8a288d-39c3-4266-9209-7f3aaf88e3e2
v -238.378 115.887 140.196
v -238.378 115.887 197.888
v -143.027 115.887 197.888
v -143.027 115.887 140.196
v -238.378 115.887 82.504
v -143.027 115.887 82.504
v -238.378 115.887 24.811
v -143.027 115.887 24.811
v -238.378 115.887 -32.881
v -143.027 115.887 -32.881
v -238.378 115.887 -90.574
v -143.027 115.887 -90.574
v -47.676 115.887 197.888
v -47.676 115.887 140.196
v -47.676 115.887 82.504
v -47.676 115.887 24.811
v -47.676 115.887 -32.881
v -47.676 115.887 -90.574
v 47.676 115.887 197.888
v 47.676 115.887 140.196
v 47.676 115.887 82.504
v 47.676 115.887 24.811
v 47.676 115.887 -32.881
v 47.676 115.887 -90.574
v 143.027 115.887 197.888
v 143.027 115.887 140.196
v 143.027 115.887 82.504
v 143.027 115.887 24.811
v 143.027 115.887 -32.881
v 143.027 115.887 -90.574
v 238.378 115.887 197.888
v 238.378 115.887 140.196
v 238.378 115.887 82.504
v 238.378 115.887 24.811
v 238.378 115.887 -32.881
v 238.378 115.887 -90.574
vt 0.00000 0.20000
vt 0.00000 0.00000
vt 0.20000 0.00000
vt 0.20000 0.20000
vt 0.00000 0.40000
vt 0.20000 0.40000
vt 0.00000 0.60000
vt 0.20000 0.60000
vt 0.00000 0.80000
vt 0.20000 0.80000
vt 0.00000 1.00000
vt 0.20000 1.00000
vt 0.40000 0.00000
vt 0.40000 0.20000
vt 0.40000 0.40000
vt 0.40000 0.60000
vt 0.40000 0.80000
vt 0.40000 1.00000
vt 0.60000 0.00000
vt 0.60000 0.20000
vt 0.60000 0.40000
vt 0.60000 0.60000
vt 0.60000 0.80000
vt 0.60000 1.00000
vt 0.80000 0.00000
vt 0.80000 0.20000
vt 0.80000 0.40000
vt 0.80000 0.60000
vt 0.80000 0.80000
vt 0.80000 1.00000
vt 1.00000 0.00000
vt 1.00000 0.20000
vt 1.00000 0.40000
vt 1.00000 0.60000
vt 1.00000 0.80000
vt 1.00000 1.00000
vn 0.00000 1.00000 0.00000
vn 0.00000 1.00000 0.00000
vn 0.00000 1.00000 0.00000
vn 0.00000 1.00000 0.00000
vn 0.00000 1.00000 0.00000
vn 0.00000 1.00000 0.00000
vn 0.00000 1.00000 0.00000
vn 0.00000 1.00000 0.00000
vn 0.00000 1.00000 0.00000
vn 0.00000 1.00000 0.00000
vn 0.00000 1.00000 0.00000
vn 0.00000 1.00000 0.00000
vn 0.00000 1.00000 0.00000
vn 0.00000 1.00000 0.00000
vn 0.00000 1.00000 0.00000
vn 0.00000 1.00000 0.00000
vn 0.00000 1.00000 0.00000
vn 0.00000 1.00000 0.00000
vn 0.00000 1.00000 0.00000
vn 0.00000 1.00000 0.00000
vn 0.00000 1.00000 0.00000
vn 0.00000 1.00000 0.00000
vn 0.00000 1.00000 0.00000
vn 0.00000 1.00000 0.00000
vn 0.00000 1.00000 0.00000
vn 0.00000 1.00000 0.00000
vn 0.00000 1.00000 0.00000
vn 0.00000 1.00000 0.00000
vn 0.00000 1.00000 0.00000
vn 0.00000 1.00000 0.00000
vn 0.00000 1.00000 0.00000
vn 0.00000 1.00000 0.00000
vn 0.00000 1.00000 0.00000
vn 0.00000 1.00000 0.00000
vn 0.00000 1.00000 0.00000
vn 0.00000 1.00000 0.00000
vn 0.00000 1.00000 0.00000
vn 0.00000 1.00000 0.00000
vn 0.00000 1.00000 0.00000
vn 0.00000 1.00000 0.00000
vn 0.00000 1.00000 0.00000
vn 0.00000 1.00000 0.00000
vn 0.00000 1.00000 0.00000
vn 0.00000 1.00000 0.00000
vn 0.00000 1.00000 0.00000
vn 0.00000 1.00000 0.00000
vn 0.00000 1.00000 0.00000
vn 0.00000 1.00000 0.00000
vn 0.00000 1.00000 0.00000
vn 0.00000 1.00000 0.00000
vn 0.00000 1.00000 0.00000
vn 0.00000 1.00000 0.00000
vn 0.00000 1.00000 0.00000
vn 0.00000 1.00000 0.00000
vn 0.00000 1.00000 0.00000
vn 0.00000 1.00000 0.00000
vn 0.00000 1.00000 0.00000
vn 0.00000 1.00000 0.00000
vn 0.00000 1.00000 0.00000
vn 0.00000 1.00000 0.00000
vn 0.00000 1.00000 0.00000
vn 0.00000 1.00000 0.00000
vn 0.00000 1.00000 0.00000
vn 0.00000 1.00000 0.00000
vn 0.00000 1.00000 0.00000
vn 0.00000 1.00000 0.00000
vn 0.00000 1.00000 0.00000
vn 0.00000 1.00000 0.00000
vn 0.00000 1.00000 0.00000
vn 0.00000 1.00000 0.00000
vn 0.00000 1.00000 0.00000
vn 0.00000 1.00000 0.00000
vn 0.00000 1.00000 0.00000
vn 0.00000 1.00000 0.00000
vn 0.00000 1.00000 0.00000
vn 0.00000 1.00000 0.00000
vn 0.00000 1.00000 0.00000
vn 0.00000 1.00000 0.00000
vn 0.00000 1.00000 0.00000
vn 0.00000 1.00000 0.00000
vn 0.00000 1.00000 0.00000
vn 0.00000 1.00000 0.00000
vn 0.00000 1.00000 0.00000
vn 0.00000 1.00000 0.00000
vn 0.00000 1.00000 0.00000
vn 0.00000 1.00000 0.00000
vn 0.00000 1.00000 0.00000
vn 0.00000 1.00000 0.00000
vn 0.00000 1.00000 0.00000
vn 0.00000 1.00000 0.00000
vn 0.00000 1.00000 0.00000
vn 0.00000 1.00000 0.00000
vn 0.00000 1.00000 0.00000
vn 0.00000 1.00000 0.00000
vn 0.00000 1.00000 0.00000
vn 0.00000 1.00000 0.00000
vn 0.00000 1.00000 0.00000
vn 0.00000 1.00000 0.00000
vn 0.00000 1.00000 0.00000
vn 0.00000 1.00000 0.00000
f 2/2/2 3/3/3 4/4/4 1/1/1 
f 1/1/6 4/4/7 6/6/8 5/5/5 
f 5/5/10 6/6/11 8/8/12 7/7/9 
f 7/7/14 8/8/15 10/10/16 9/9/13 
f 9/9/18 10/10/19 12/12/20 11/11/17 
f 3/3/22 13/13/23 14/14/24 4/4/21 
f 4/4/26 14/14/27 15/15/28 6/6/25 
f 6/6/30 15/15/31 16/16/32 8/8/29 
f 8/8/34 16/16/35 17/17/36 10/10/33 
f 10/10/38 17/17/39 18/18/40 12/12/37 
f 13/13/42 19/19/43 20/20/44 14/14/41 
f 14/14/46 20/20/47 21/21/48 15/15/45 
f 15/15/50 21/21/51 22/22/52 16/16/49 
f 16/16/54 22/22/55 23/23/56 17/17/53 
f 17/17/58 23/23/59 24/24/60 18/18/57 
f 19/19/62 25/25/63 26/26/64 20/20/61 
f 20/20/66 26/26/67 27/27/68 21/21/65 
f 21/21/70 27/27/71 28/28/72 22/22/69 
f 22/22/74 28/28/75 29/29/76 23/23/73 
f 23/23/78 29/29/79 30/30/80 24/24/77 
f 25/25/82 31/31/83 32/32/84 26/26/81 
f 26/26/86 32/32/87 33/33/88 27/27/85 
f 27/27/90 33/33/91 34/34/92 28/28/89 
f 28/28/94 34/34/95 35/35/96 29/29/93 
f 29/29/98 35/35/99 36/36/100 30/30/97 
